HIERARCHY
ROOT ROOT
{
	OFFSET 0.000000 56.020000 -5.659234
	CHANNELS 6 Xposition Yposition Zposition Xrotation Yrotation Zrotation 
	JOINT C_spine0001_bind_JNT
	{
		OFFSET 0.000000 1.618999 0.000000
		CHANNELS 3 Xrotation Yrotation Zrotation
		JOINT C_spine0002_bind_JNT
		{
			OFFSET 0.000000 4.942001 0.000001
			CHANNELS 3 Xrotation Yrotation Zrotation
			JOINT C_spine0003_bind_JNT
			{
				OFFSET 0.000000 4.942001 -0.000000
				CHANNELS 3 Xrotation Yrotation Zrotation
				JOINT C_neck0001_bind_JNT
				{
					OFFSET 0.000000 17.026009 -0.000000
					CHANNELS 3 Xrotation Yrotation Zrotation
					JOINT C_neck0002_bind_JNT
					{
						OFFSET 0.000000 3.249985 0.000000
						CHANNELS 3 Xrotation Yrotation Zrotation
						JOINT C_head_bind_JNT
						{
							OFFSET 0.000000 5.278008 0.000000
							CHANNELS 3 Xrotation Yrotation Zrotation
							End Site
							{
								OFFSET 0.000000 0.000000 0.000000
							}
						}
					}
				}
				JOINT L_clavicle_bind_JNT
				{
					OFFSET 4.590000 12.067001 0.834000
					CHANNELS 3 Xrotation Yrotation Zrotation
					JOINT L_armUpper0001_bind_JNT
					{
						OFFSET 7.812635 0.512001 -3.452945
						CHANNELS 3 Xrotation Yrotation Zrotation
						JOINT L_armLower0001_bind_JNT
						{
							OFFSET 15.265892 -6.552116 -0.058157
							CHANNELS 3 Xrotation Yrotation Zrotation
							JOINT L_hand0001_bind_JNT
							{
								OFFSET 14.747667 -6.369995 5.049225
								CHANNELS 3 Xrotation Yrotation Zrotation
								End Site
								{
									OFFSET 0.000000 0.000000 0.000000
								}
							}
						}
					}
				}
				JOINT R_clavicle_bind_JNT
				{
					OFFSET -4.590000 12.067001 0.834000
					CHANNELS 3 Xrotation Yrotation Zrotation
					JOINT R_armUpper0001_bind_JNT
					{
						OFFSET -7.812635 0.512001 -3.452945
						CHANNELS 3 Xrotation Yrotation Zrotation
						JOINT R_armLower0001_bind_JNT
						{
							OFFSET -15.265890 -6.552124 -0.058160
							CHANNELS 3 Xrotation Yrotation Zrotation
							JOINT R_hand0001_bind_JNT
							{
								OFFSET -14.746784 -6.369629 5.048937
								CHANNELS 3 Xrotation Yrotation Zrotation
								End Site
								{
									OFFSET 0.000000 0.000000 0.000000
								}
							}
						}
					}
				}
			}
		}
	}
	JOINT C_pelvis0001_bind_JNT
	{
		OFFSET -0.000000 0.000000 0.000000
		CHANNELS 3 Xrotation Yrotation Zrotation
		JOINT L_legUpper0001_bind_JNT
		{
			OFFSET 6.599999 -6.027000 0.539000
			CHANNELS 3 Xrotation Yrotation Zrotation
			JOINT L_legLower0001_bind_JNT
			{
				OFFSET -0.140713 -19.187443 0.040261
				CHANNELS 3 Xrotation Yrotation Zrotation
				JOINT L_foot0001_bind_JNT
				{
					OFFSET -0.132215 -18.028637 -1.138370
					CHANNELS 3 Xrotation Yrotation Zrotation
					JOINT L_foot0002_bind_JNT
					{
						OFFSET 0.007014 -4.693133 9.886524
						CHANNELS 3 Xrotation Yrotation Zrotation
						End Site
						{
							OFFSET 0.000000 0.000000 0.000000
						}
					}
				}
			}
		}
		JOINT R_legUpper0001_bind_JNT
		{
			OFFSET -6.599999 -6.027000 0.539000
			CHANNELS 3 Xrotation Yrotation Zrotation
			JOINT R_legLower0001_bind_JNT
			{
				OFFSET 0.140710 -19.187164 0.040550
				CHANNELS 3 Xrotation Yrotation Zrotation
				JOINT R_foot0001_bind_JNT
				{
					OFFSET 0.132215 -18.028633 -1.138362
					CHANNELS 3 Xrotation Yrotation Zrotation
					JOINT R_foot0002_bind_JNT
					{
						OFFSET -0.007014 -4.693128 9.886505
						CHANNELS 3 Xrotation Yrotation Zrotation
						End Site
						{
							OFFSET 0.000000 0.000000 0.000000
						}
					}
				}
			}
		}
	}
}
MOTION
Frames: 14
Frame Time: 0.033333
0.000000 49.325352 0.000000 0.021369 -12.302692 -0.038671 5.315594 11.821589 2.179295 -4.441412 -0.431898 0.911924 3.786793 0.260997 -0.017856 24.050619 -1.300241 0.292603 0.233999 -0.021556 -0.037063 6.761272 -2.606901 -0.429414 17.134916 8.561831 20.449282 -19.119446 -4.002633 -79.549278 -0.466166 7.925261 -0.991170 0.969618 -16.142372 -21.909403 16.460215 -7.127641 -21.314272 -21.581701 0.078840 79.385902 3.782585 -16.977047 1.182396 -2.117526 14.253819 22.609091 6.458946 11.693069 0.418309 -13.987466 3.031938 3.900986 6.728865 -0.680541 -0.499874 -3.855515 4.373459 -6.803016 -4.286581 -0.470748 0.108180 -6.576145 -5.732928 2.110300 9.882637 -1.796280 0.610386 -9.247212 -5.282416 -3.564441 -1.665295 0.158026 -0.926624
-0.103414 49.432533 0.266612 0.019680 -11.544508 -0.018542 5.130219 11.506701 2.951706 -4.511086 -0.502883 1.217498 3.886381 -0.359124 0.637258 24.372004 -1.411413 -0.486089 0.188274 -0.230168 -0.006455 7.306308 -2.569249 -0.341602 16.914646 8.409169 19.722860 -15.922028 -2.807076 -78.682922 -0.716394 6.586875 -1.826622 1.711066 -16.374403 -22.227871 16.061621 -7.361221 -21.644905 -21.319096 1.032441 78.303566 4.557226 -16.247158 1.409044 -1.397785 14.789086 23.126833 6.280192 11.266161 0.554391 -16.982338 2.390712 4.175761 11.897837 -0.254345 -0.244243 -3.649931 4.337204 -7.732138 -5.691571 0.305517 0.129489 -6.561817 -5.871313 2.229731 10.894847 -1.887035 0.417289 -9.623534 -5.960148 -3.791117 -1.878514 0.089251 -0.621814
-0.455157 49.359116 0.371474 0.021167 -11.745978 -0.040067 5.416327 12.493804 3.440118 -4.082073 -0.614610 1.515026 4.224632 -0.339250 0.825986 24.468945 -1.744639 -0.199688 0.245797 -0.179130 -0.066473 8.064085 -3.391580 -0.222951 16.275143 8.692461 19.734875 -13.837658 -2.238834 -77.411247 -1.762922 5.208255 -2.490669 1.987584 -16.282520 -22.139151 15.436130 -7.749740 -21.199327 -21.636765 1.363209 77.361046 3.781615 -15.628500 1.205545 -0.485265 14.209902 23.126444 5.740751 12.184678 0.886165 -20.472212 2.511414 5.081642 17.070677 -0.190410 -1.409541 -2.208630 3.923622 -8.499866 -7.467905 -0.174996 1.162712 -5.693717 -6.857405 2.381237 10.883041 -1.896165 0.674634 -9.927124 -6.019732 -4.365733 -2.130411 -0.063462 -0.616792
-0.678606 49.399597 0.524351 0.014810 -11.552046 -0.047329 5.848741 12.957839 4.106404 -3.934113 -0.486164 1.796832 4.774070 -0.452767 1.060824 24.551407 -1.821336 -0.334785 0.285049 -0.294243 -0.145508 8.346797 -3.009877 -0.521672 15.798937 8.887727 19.308479 -12.435244 -1.687497 -76.271820 -2.461478 4.089509 -2.786335 1.488308 -16.197100 -22.231091 15.081655 -8.069345 -20.920683 -22.082438 2.026549 76.180702 3.475739 -15.054681 1.421910 -0.171388 13.920979 22.668983 5.730987 12.622636 1.393120 -24.917189 2.948404 6.192955 23.314793 0.036224 -2.216197 0.676935 3.540756 -9.869507 -9.336927 -0.110351 1.728012 -6.184996 -7.675159 1.564970 11.733023 -1.768359 0.982745 -10.343401 -6.406554 -4.388626 -2.140878 0.012672 -0.726142
-0.807515 49.364845 0.714519 0.025391 -11.312003 -0.026100 6.223379 13.435470 4.634879 -3.581827 -0.610311 1.973965 4.861855 -0.499411 1.341270 25.047720 -1.977874 -0.560786 0.276579 -0.237979 -0.080831 8.931138 -3.217582 -0.473011 15.549397 9.108038 19.010218 -10.314141 -0.981654 -74.996246 -3.426103 2.322372 -3.563708 1.871040 -15.456867 -22.011414 14.578433 -8.243503 -20.598351 -22.382898 2.876070 75.021187 3.448289 -14.822268 1.235036 -0.333964 13.848479 22.574640 6.062345 12.905997 1.615105 -28.963743 3.775524 7.730976 28.429211 0.572419 -3.951257 4.107771 2.903391 -10.469314 -10.048680 -0.396547 2.223377 -6.620992 -8.218672 1.430063 12.162009 -1.904034 0.855387 -10.726460 -6.764248 -4.453915 -2.237253 -0.018026 -0.813405
-0.783715 49.192524 0.863509 0.014465 -10.966748 -0.035642 6.773954 13.914137 5.476157 -3.654317 -0.495256 2.065631 5.127404 -0.613756 1.454348 25.412050 -1.876185 -0.480910 0.372172 -0.482413 -0.203275 9.448017 -3.875128 -0.592753 14.958344 9.153550 18.982372 -8.366806 -0.120208 -73.650238 -4.024434 1.083754 -4.455482 2.080616 -15.320040 -22.521006 14.644691 -8.629490 -20.316851 -23.104136 2.874008 73.467613 3.835134 -14.338644 1.352561 -0.310438 13.368442 22.640577 6.120940 13.320866 1.899433 -31.752981 4.364506 9.324443 32.142918 1.091101 -5.948417 6.990814 1.844752 -11.307021 -9.408858 -0.711137 1.995055 -6.678815 -8.777006 0.949481 12.703101 -1.908634 0.961371 -11.313126 -7.073360 -4.544316 -2.227507 0.080357 -0.908870
-0.810626 49.152489 1.038216 0.013259 -10.544660 -0.027220 7.013471 14.461485 6.468437 -3.449067 -0.577896 2.049469 5.257767 -0.553830 1.650878 25.782801 -2.183562 -0.646274 0.364686 -0.398933 -0.008886 10.226815 -4.021167 -0.855005 14.746282 8.689749 19.123096 -6.702532 1.392115 -73.005096 -4.210783 0.285237 -4.856177 2.429137 -14.767111 -23.091726 14.353312 -9.270136 -19.868031 -23.702724 3.602273 72.102173 3.652267 -14.580115 0.978165 -0.480738 12.984950 22.586260 6.245066 13.757549 2.613912 -34.239079 5.361779 9.824854 33.735394 1.633493 -7.814150 9.388015 2.115394 -12.037803 -7.550406 -0.922584 1.515926 -6.871616 -9.516230 0.181659 13.496845 -1.856473 0.706180 -12.212894 -7.045260 -4.582039 -2.268560 0.117414 -0.793649
-0.811692 49.106838 1.219938 0.028563 -10.897728 -0.044837 7.484068 15.621183 7.174269 -3.265097 -0.480377 2.181293 5.342296 -0.600270 1.736401 26.083437 -2.626212 -0.732858 0.267727 -0.362507 -0.041833 11.561130 -4.561442 -0.250860 14.279916 8.658672 18.884007 -5.238333 2.425239 -72.262550 -4.437237 0.001225 -5.172810 2.838847 -14.300353 -23.569696 14.034544 -9.541257 -19.572903 -23.850077 3.619253 71.219933 3.374437 -14.411661 0.527525 -0.317005 12.857433 22.232143 6.451692 14.662788 3.171895 -36.857796 6.766253 10.454261 34.329350 1.760107 -9.178592 9.761701 2.392411 -13.133924 -5.181452 -0.726636 0.291066 -7.165923 -10.043129 -0.554151 13.932062 -1.740049 0.434029 -12.704277 -7.029889 -4.402649 -2.227572 0.244332 -0.867477
-0.846025 49.129467 1.557760 0.014709 -10.865391 -0.034179 7.909266 16.396791 7.999804 -3.289049 -0.491544 2.308975 5.604059 -0.614389 1.828842 26.589586 -2.992965 -0.630906 0.456351 -0.406941 -0.132893 12.619336 -5.405587 -0.273435 13.906163 8.169903 18.874437 -3.785967 3.538890 -71.842155 -4.782185 -0.111270 -5.446157 2.775827 -13.483909 -24.545855 13.834668 -9.954888 -19.182037 -24.382982 3.609817 70.458710 3.395876 -14.557079 0.509013 -0.270941 12.455695 21.236076 6.687085 15.288956 4.050539 -38.820679 8.049147 9.984048 32.079792 3.094899 -10.151407 11.439945 3.468850 -13.380824 -3.726613 -0.562180 0.102452 -6.971712 -10.406007 -1.628448 13.958251 -1.655219 0.230600 -13.199806 -7.002919 -4.061345 -2.286890 0.091319 -0.640992
-1.004591 49.129883 1.847788 0.024164 -11.497169 -0.025411 8.594119 17.652653 8.273713 -3.383408 -0.567921 2.508692 5.569444 -0.753180 2.036059 27.339390 -3.293645 -0.704584 0.368999 -0.461319 -0.145201 13.522733 -5.820093 0.125781 13.515967 7.935891 18.655630 -2.374873 4.268028 -71.778862 -4.793755 0.359263 -5.641350 3.028455 -13.316072 -24.632612 13.787551 -9.673806 -18.530735 -24.720800 3.619475 69.680275 3.097598 -14.264585 0.381179 -0.744876 12.489001 20.952019 6.752346 16.477459 4.901993 -39.868446 9.295101 9.306005 29.456913 3.909907 -10.523438 11.188882 4.371173 -13.182933 -2.532986 -0.338531 -0.364284 -7.447854 -11.192645 -2.443911 14.871759 -1.613859 -0.141451 -13.788164 -7.052931 -4.006314 -2.402563 0.213672 -0.791463
-1.119628 49.117970 2.177988 0.025866 -12.396738 -0.030441 8.785168 19.031507 8.948657 -3.184912 -0.582835 2.583466 5.864700 -0.814489 2.366468 27.820246 -3.667743 -0.892236 0.320551 -0.578807 -0.087138 14.650379 -6.348000 0.166459 13.229789 7.594635 18.335846 -0.874359 5.100959 -71.787743 -4.874418 0.303458 -5.544322 3.029297 -13.067821 -25.677349 13.538852 -9.944908 -18.056646 -25.288609 3.875190 68.957970 2.679873 -14.027057 0.575543 -0.596000 12.744624 20.140045 7.007771 17.836531 5.445969 -40.155224 10.653948 8.916364 24.696049 5.121404 -10.783261 12.096085 5.385845 -12.813517 -2.469254 -0.139759 -0.381724 -8.021278 -11.663381 -3.288254 16.158392 -1.878952 0.074634 -14.704351 -6.938345 -4.041454 -2.471844 0.177341 -0.592300
-1.234592 49.061848 2.553173 0.018494 -12.812958 -0.025534 9.057125 19.613503 9.315938 -3.233015 -0.572331 2.764707 5.921051 -0.889537 2.453473 28.142290 -3.799863 -0.946749 0.439336 -0.341996 -0.092573 15.455968 -6.840552 0.486479 13.176359 7.526149 18.350784 0.741978 5.850770 -71.773277 -4.982182 0.587773 -5.712824 3.210241 -12.951811 -26.453102 13.661118 -10.038970 -17.605078 -25.746773 4.272759 68.398163 2.672462 -14.043329 0.632488 -0.812923 13.347613 20.159966 6.932950 18.374920 5.639871 -40.411915 12.089747 8.839580 20.556181 6.028619 -10.524574 12.177124 6.233340 -11.822243 -3.124731 -0.069291 -0.223480 -7.837668 -11.816366 -3.267950 16.691429 -2.033048 -0.200074 -15.135236 -6.689146 -4.047243 -2.594373 0.048519 -0.576419
-1.201624 48.953400 2.995312 0.027861 -13.145988 -0.036658 8.930189 20.208136 9.953015 -3.250036 -0.651944 3.000510 6.165383 -1.060098 2.640885 28.629431 -4.033045 -1.045782 0.310988 -0.478471 -0.044352 16.135902 -7.105950 0.275157 13.079820 7.675017 17.875895 2.429891 5.935422 -71.639030 -5.271330 0.866670 -5.604038 3.211476 -12.908044 -27.304132 13.623798 -10.298925 -17.256763 -26.215633 4.849692 67.710464 2.736307 -13.951670 0.898940 -0.961145 13.518621 19.713352 6.804096 18.901981 5.764524 -40.715809 13.321554 8.784402 16.110765 6.706272 -9.951585 12.048585 7.278383 -10.514404 -2.845090 0.106653 -0.296982 -7.764385 -12.229323 -3.539538 18.027014 -2.030421 -0.116756 -16.083666 -6.781845 -3.930620 -2.819584 0.097900 -0.461165
-1.128749 48.886822 3.459780 0.030904 -13.269253 -0.028687 8.772885 20.214401 10.307624 -3.104037 -0.599938 3.038409 6.177231 -1.116602 2.730323 28.889862 -4.146895 -1.067280 0.424859 -0.381021 -0.062900 16.639669 -7.301238 0.468902 13.222631 7.629899 17.507736 3.573935 6.410848 -71.395447 -5.232549 1.336980 -5.616405 3.441314 -13.130865 -27.949953 13.811689 -10.405073 -16.880386 -26.509533 5.156702 67.267303 2.726813 -13.677864 0.976073 -1.084873 13.996791 19.732861 6.591729 18.858492 5.928781 -41.483128 14.447765 9.172045 13.797430 7.096164 -9.877831 11.301145 7.858854 -9.175545 -2.762850 0.188652 -0.230122 -7.231954 -12.153045 -3.690931 18.316278 -1.997829 -0.289401 -16.383549 -6.782337 -3.676224 -3.065388 0.052005 -0.413715
